<svg width="40" height="40" viewBox="0 0 40 40" fill="none" xmlns="http://www.w3.org/2000/svg">
<g clip-path="url(#clip0_6_53)">
<path d="M7.03311 9.45312L7.0331 30.5469L32.9669 30.5469L32.9669 9.45312L7.03311 9.45312ZM13.9483 11.7969C13.4811 14.0904 11.6704 15.9012 9.37686 16.3684L9.37686 11.7969L13.9483 11.7969ZM30.6231 18.7459L30.6231 21.2541C27.0349 21.7695 24.1895 24.6149 23.674 28.2032L16.3259 28.2032C15.8105 24.615 12.9651 21.7695 9.37686 21.2541L9.37686 18.7459C12.9651 18.2305 15.8105 15.3851 16.3259 11.7968L23.674 11.7968C24.1894 15.3851 27.0349 18.2305 30.6231 18.7459ZM9.37686 23.6316C11.6704 24.0989 13.4811 25.9097 13.9483 28.2032L9.37686 28.2032L9.37686 23.6316ZM26.0516 28.2031C26.5189 25.9096 28.3296 24.0988 30.6231 23.6316L30.6231 28.2031L26.0516 28.2031ZM30.6231 16.3684C28.3296 15.9011 26.5189 14.0903 26.0516 11.7968L30.6231 11.7968L30.6231 16.3684Z" fill="black"/>
<path d="M40 32.8906L37.6544 32.8906L37.6544 30.5469L40 30.5469L40 28.2031L37.6544 28.2031L37.6544 25.8594L40 25.8594L40 23.5156L37.6544 23.5156L37.6544 21.1719L40 21.1719L40 18.8281L37.6544 18.8281L37.6544 16.4844L40 16.4844L40 14.1406L37.6544 14.1406L37.6544 11.7969L40 11.7969L40 9.45312L37.6544 9.45312L37.6544 7.10937L40 7.10938L40 4.76562L0 4.76562L-1.02449e-07 7.10937L2.34562 7.10937L2.34562 9.45312L-2.04897e-07 9.45312L-3.07346e-07 11.7969L2.34562 11.7969L2.34562 14.1406L-4.09794e-07 14.1406L-5.12243e-07 16.4844L2.34562 16.4844L2.34562 18.8281L-6.14691e-07 18.8281L-7.1714e-07 21.1719L2.34562 21.1719L2.34562 23.5156L-8.19589e-07 23.5156L-9.22037e-07 25.8594L2.34562 25.8594L2.34562 28.2031L-1.02449e-06 28.2031L-1.12693e-06 30.5469L2.34562 30.5469L2.34562 32.8906L-1.22938e-06 32.8906L-1.33183e-06 35.2344L40 35.2344L40 32.8906ZM35.3106 7.10937L35.3106 32.8906L4.68945 32.8906L4.68945 7.10937L35.3106 7.10937Z" fill="black"/>
<path d="M13.8215 20L20 26.1784L26.1785 20L20 13.8215L13.8215 20ZM20 22.864L17.136 20L20 17.136L22.864 20L20 22.864Z" fill="black"/>
</g>
<defs>
<clipPath id="clip0_6_53">
<rect width="40" height="40" fill="white" transform="translate(40) rotate(90)"/>
</clipPath>
</defs>
</svg>
