<svg width="40" height="40" viewBox="0 0 40 40" fill="none" xmlns="http://www.w3.org/2000/svg">
<path d="M38.15 14.3333L24.2833 10.55C22 9.93028 19.5659 10.2107 17.4833 11.3333L11.3833 14.6667L2.5 16.3333C1.83984 16.3333 1.20646 16.5944 0.7381 17.0597C0.269735 17.5249 0.00440109 18.1565 0 18.8167L0 23.8167C0 24.4797 0.263392 25.1156 0.732233 25.5844C1.20107 26.0533 1.83696 26.3167 2.5 26.3167H4.16667C4.33047 27.2833 4.83123 28.1608 5.58018 28.7935C6.32913 29.4262 7.2779 29.7733 8.25833 29.7733C9.23876 29.7733 10.1875 29.4262 10.9365 28.7935C11.6854 28.1608 12.1862 27.2833 12.35 26.3167H27.5C27.6638 27.2833 28.1646 28.1608 28.9135 28.7935C29.6625 29.4262 30.6112 29.7733 31.5917 29.7733C32.5721 29.7733 33.5209 29.4262 34.2698 28.7935C35.0188 28.1608 35.5195 27.2833 35.6833 26.3167H37.35C38.013 26.3167 38.6489 26.0533 39.1178 25.5844C39.5866 25.1156 39.85 24.4797 39.85 23.8167V16.6667C39.8427 16.1497 39.6753 15.6477 39.3708 15.2298C39.0664 14.812 38.6399 14.4987 38.15 14.3333ZM30 13.85V14.65H28.8333L28.1833 13.3333L30 13.85ZM18.3333 12.8167C19.9367 11.9611 21.7948 11.7126 23.5667 12.1167H23.9H24.1833L26.0833 12.6333L27.0167 14.5167H15L18.3333 12.8167ZM8.33333 28.1C7.83888 28.1 7.35553 27.9534 6.94441 27.6787C6.53328 27.404 6.21285 27.0135 6.02363 26.5567C5.83442 26.0999 5.78491 25.5972 5.88137 25.1123C5.97783 24.6273 6.21594 24.1819 6.56557 23.8322C6.9152 23.4826 7.36065 23.2445 7.84561 23.1481C8.33056 23.0516 8.83323 23.1011 9.29004 23.2903C9.74686 23.4795 10.1373 23.8 10.412 24.2111C10.6867 24.6222 10.8333 25.1056 10.8333 25.6C10.8333 26.2631 10.5699 26.8989 10.1011 27.3678C9.63226 27.8366 8.99637 28.1 8.33333 28.1ZM31.6667 28.1C31.1722 28.1 30.6889 27.9534 30.2777 27.6787C29.8666 27.404 29.5462 27.0135 29.357 26.5567C29.1677 26.0999 29.1182 25.5972 29.2147 25.1123C29.3112 24.6273 29.5493 24.1819 29.8989 23.8322C30.2485 23.4826 30.694 23.2445 31.1789 23.1481C31.6639 23.0516 32.1666 23.1011 32.6234 23.2903C33.0802 23.4795 33.4706 23.8 33.7453 24.2111C34.02 24.6222 34.1667 25.1056 34.1667 25.6C34.1667 26.2631 33.9033 26.8989 33.4344 27.3678C32.9656 27.8366 32.3297 28.1 31.6667 28.1ZM38.3333 19.65H37.5C37.279 19.65 37.067 19.7378 36.9107 19.8941C36.7545 20.0504 36.6667 20.2623 36.6667 20.4833C36.6667 20.7044 36.7545 20.9163 36.9107 21.0726C37.067 21.2289 37.279 21.3167 37.5 21.3167H38.3333V23.8167C38.3333 24.0377 38.2455 24.2497 38.0893 24.4059C37.933 24.5622 37.721 24.65 37.5 24.65H35.7167C35.504 23.7376 34.9888 22.924 34.255 22.3415C33.5212 21.7591 32.6119 21.4421 31.675 21.4421C30.7381 21.4421 29.8288 21.7591 29.095 22.3415C28.3612 22.924 27.846 23.7376 27.6333 24.65H12.3833C12.1707 23.7376 11.6555 22.924 10.9217 22.3415C10.1879 21.7591 9.27855 21.4421 8.34167 21.4421C7.40478 21.4421 6.49547 21.7591 5.76164 22.3415C5.02782 22.924 4.51267 23.7376 4.3 24.65H2.5C2.27899 24.65 2.06702 24.5622 1.91074 24.4059C1.75446 24.2497 1.66667 24.0377 1.66667 23.8167V21.3167H2.5C2.72101 21.3167 2.93298 21.2289 3.08926 21.0726C3.24554 20.9163 3.33333 20.7044 3.33333 20.4833C3.33333 20.2623 3.24554 20.0504 3.08926 19.8941C2.93298 19.7378 2.72101 19.65 2.5 19.65H1.66667V18.8167C1.67288 18.6954 1.70357 18.5766 1.75689 18.4675C1.81021 18.3584 1.88506 18.2612 1.97693 18.1818C2.0688 18.1024 2.1758 18.0424 2.29147 18.0054C2.40714 17.9685 2.5291 17.9553 2.65 17.9667L11.6667 16.3167H30.8333C31.0543 16.3167 31.2663 16.2289 31.4226 16.0726C31.5789 15.9163 31.6667 15.7044 31.6667 15.4833V14.3L37.7167 15.9667C37.8775 16.0085 38.0222 16.0976 38.1321 16.2223C38.242 16.347 38.3121 16.5018 38.3333 16.6667V19.65ZM25.8333 21.3167H14.1667C13.9457 21.3167 13.7337 21.4045 13.5774 21.5608C13.4211 21.717 13.3333 21.929 13.3333 22.15C13.3333 22.371 13.4211 22.583 13.5774 22.7393C13.7337 22.8956 13.9457 22.9833 14.1667 22.9833H25.8333C26.0543 22.9833 26.2663 22.8956 26.4226 22.7393C26.5789 22.583 26.6667 22.371 26.6667 22.15C26.6667 21.929 26.5789 21.717 26.4226 21.5608C26.2663 21.4045 26.0543 21.3167 25.8333 21.3167Z" fill="black"/>
</svg>
