<svg width="40" height="40" viewBox="0 0 40 40" fill="none" xmlns="http://www.w3.org/2000/svg">
<g clip-path="url(#clip0_5_29)">
<path d="M33.8281 35.1563C32.6074 35.1563 31.4142 34.7943 30.3992 34.1161C29.3843 33.4379 28.5932 32.474 28.1261 31.3463C27.6589 30.2185 27.5367 28.9775 27.7748 27.7803C28.013 26.5831 28.6008 25.4834 29.464 24.6202C30.3271 23.757 31.4268 23.1692 32.6241 22.9311C33.8213 22.693 35.0622 22.8152 36.19 23.2823C37.3178 23.7494 38.2817 24.5405 38.9599 25.5555C39.638 26.5704 40 27.7637 40 28.9844C39.9981 30.6207 39.3473 32.1894 38.1902 33.3465C37.0332 34.5035 35.4644 35.1544 33.8281 35.1563ZM33.8281 25.3125C33.1019 25.3125 32.392 25.5279 31.7881 25.9313C31.1843 26.3348 30.7137 26.9083 30.4358 27.5792C30.1578 28.2502 30.0851 28.9885 30.2268 29.7007C30.3685 30.413 30.7182 31.0673 31.2317 31.5808C31.7452 32.0943 32.3995 32.444 33.1118 32.5857C33.8241 32.7274 34.5623 32.6547 35.2333 32.3767C35.9042 32.0988 36.4777 31.6282 36.8812 31.0244C37.2846 30.4205 37.5 29.7106 37.5 28.9844C37.5 28.0105 37.1131 27.0766 36.4245 26.388C35.7359 25.6994 34.802 25.3125 33.8281 25.3125Z" fill="black"/>
<path d="M6.17188 35.1562C4.9512 35.1562 3.75793 34.7943 2.74297 34.1161C1.72801 33.4379 0.936943 32.474 0.469809 31.3462C0.0026742 30.2185 -0.11955 28.9775 0.118594 27.7803C0.356737 26.5831 0.944551 25.4834 1.8077 24.6202C2.67086 23.757 3.77058 23.1692 4.9678 22.9311C6.16503 22.6929 7.40599 22.8152 8.53375 23.2823C9.66152 23.7494 10.6254 24.5405 11.3036 25.5555C11.9818 26.5704 12.3438 27.7637 12.3438 28.9844C12.3419 30.6207 11.691 32.1894 10.534 33.3465C9.37695 34.5035 7.80819 35.1544 6.17188 35.1562ZM6.17188 25.3125C5.44565 25.3125 4.73573 25.5279 4.13189 25.9313C3.52806 26.3348 3.05742 26.9083 2.77951 27.5792C2.50159 28.2502 2.42888 28.9884 2.57056 29.7007C2.71224 30.413 3.06195 31.0673 3.57547 31.5808C4.08899 32.0943 4.74326 32.444 5.45553 32.5857C6.1678 32.7274 6.9061 32.6547 7.57704 32.3767C8.24799 32.0988 8.82146 31.6282 9.22493 31.0244C9.6284 30.4205 9.84375 29.7106 9.84375 28.9844C9.84375 28.5022 9.74878 28.0247 9.56425 27.5792C9.37972 27.1337 9.10925 26.7289 8.76829 26.388C8.42732 26.047 8.02254 25.7765 7.57704 25.592C7.13155 25.4075 6.65408 25.3125 6.17188 25.3125ZM33.8281 30.2344C33.5429 30.2341 33.2664 30.1363 33.0445 29.9573C32.8225 29.7782 32.6684 29.5287 32.6078 29.25L28.2891 9.375H26.3281C25.9966 9.375 25.6787 9.2433 25.4442 9.00888C25.2098 8.77446 25.0781 8.45652 25.0781 8.125C25.0781 7.79348 25.2098 7.47554 25.4442 7.24112C25.6787 7.0067 25.9966 6.875 26.3281 6.875H29.2969C29.5823 6.8749 29.8592 6.97251 30.0815 7.15159C30.3038 7.33067 30.4581 7.58044 30.5188 7.85937L35.05 28.7188C35.0897 28.9012 35.088 29.0903 35.045 29.272C35.002 29.4537 34.9189 29.6235 34.8017 29.7689C34.6845 29.9143 34.5362 30.0316 34.3677 30.1121C34.1992 30.1927 34.0149 30.2344 33.8281 30.2344Z" fill="black"/>
<path d="M33.8281 24.6875H31.4062C30.4324 24.6875 29.4985 24.3006 28.8098 23.612C28.1212 22.9234 27.7344 21.9895 27.7344 21.0156C27.7344 20.0418 28.1212 19.1078 28.8098 18.4192C29.4985 17.7306 30.4324 17.3438 31.4062 17.3438H33.8281C34.1596 17.3438 34.4776 17.4754 34.712 17.7099C34.9464 17.9443 35.0781 18.2622 35.0781 18.5938V23.4375C35.0781 23.769 34.9464 24.087 34.712 24.3214C34.4776 24.5558 34.1596 24.6875 33.8281 24.6875ZM31.4062 19.8438C31.0954 19.8438 30.7974 19.9672 30.5776 20.187C30.3578 20.4068 30.2344 20.7048 30.2344 21.0156C30.2344 21.3264 30.3578 21.6245 30.5776 21.8443C30.7974 22.064 31.0954 22.1875 31.4062 22.1875H32.5781V19.8438H31.4062Z" fill="black"/>
<path d="M27.907 21.0156H17.1875C16.856 21.0156 16.538 20.8839 16.3036 20.6495C16.0692 20.4151 15.9375 20.0971 15.9375 19.7656V16.7969C15.9389 15.5956 16.4168 14.4439 17.2663 13.5944C18.1157 12.7449 19.2674 12.2671 20.4688 12.2656H27.907C29.0674 12.2656 30.1802 12.7266 31.0006 13.547C31.8211 14.3675 32.282 15.4803 32.282 16.6406C32.282 17.8009 31.8211 18.9137 31.0006 19.7342C30.1802 20.5547 29.0674 21.0156 27.907 21.0156ZM18.4375 18.5156H27.907C28.4043 18.5156 28.8812 18.3181 29.2329 17.9665C29.5845 17.6148 29.782 17.1379 29.782 16.6406C29.782 16.1433 29.5845 15.6664 29.2329 15.3148C28.8812 14.9632 28.4043 14.7656 27.907 14.7656H20.4688C19.93 14.7656 19.4134 14.9796 19.0324 15.3606C18.6515 15.7415 18.4375 16.2582 18.4375 16.7969V18.5156Z" fill="black"/>
<path d="M17.1875 21.0156H6.09375C5.09919 21.0156 4.14536 20.6205 3.4421 19.9173C2.73884 19.214 2.34375 18.2602 2.34375 17.2656C2.34375 16.2711 2.73884 15.3172 3.4421 14.614C4.14536 13.9107 5.09919 13.5156 6.09375 13.5156H14.6875C15.6817 13.5167 16.635 13.9121 17.338 14.6151C18.041 15.3182 18.4365 16.2714 18.4375 17.2656V19.7656C18.4375 20.0971 18.3058 20.4151 18.0714 20.6495C17.837 20.8839 17.519 21.0156 17.1875 21.0156ZM6.09375 16.0156C5.76223 16.0156 5.44429 16.1473 5.20987 16.3817C4.97545 16.6162 4.84375 16.9341 4.84375 17.2656C4.84375 17.5971 4.97545 17.9151 5.20987 18.1495C5.44429 18.3839 5.76223 18.5156 6.09375 18.5156H15.9375V17.2656C15.9375 16.9341 15.8058 16.6162 15.5714 16.3817C15.337 16.1473 15.019 16.0156 14.6875 16.0156H6.09375ZM23.5773 30.2344H11.0938C10.7622 30.2344 10.4443 30.1027 10.2099 29.8683C9.97545 29.6338 9.84375 29.3159 9.84375 28.9844C9.84375 28.6529 9.97545 28.3349 10.2099 28.1005C10.4443 27.8661 10.7622 27.7344 11.0938 27.7344H22.7695L26.5977 19.2516C26.6652 19.1019 26.7615 18.967 26.8811 18.8545C27.0008 18.742 27.1414 18.6542 27.295 18.5961C27.4486 18.538 27.6121 18.5107 27.7762 18.5158C27.9404 18.5209 28.1019 18.5583 28.2516 18.6258C28.4012 18.6933 28.5362 18.7896 28.6486 18.9093C28.7611 19.0289 28.8489 19.1696 28.907 19.3231C28.9651 19.4767 28.9924 19.6402 28.9873 19.8044C28.9822 19.9685 28.9449 20.13 28.8773 20.2797L24.7195 29.4984C24.6204 29.7182 24.4598 29.9046 24.2572 30.0352C24.0545 30.1657 23.8184 30.2349 23.5773 30.2344Z" fill="black"/>
<path d="M16.0156 30.2344C15.7489 30.2344 15.4892 30.1491 15.2744 29.991C15.0596 29.8329 14.9011 29.6102 14.8219 29.3555L11.9594 20.1367C11.861 19.8201 11.8924 19.4774 12.0466 19.1839C12.2009 18.8905 12.4654 18.6703 12.782 18.5719C13.0986 18.4735 13.4414 18.5049 13.7348 18.6591C14.0283 18.8134 14.2485 19.0779 14.3469 19.3945L17.2094 28.6133C17.2676 28.8004 17.2809 28.9985 17.2484 29.1917C17.2159 29.385 17.1385 29.5678 17.0223 29.7256C16.9061 29.8834 16.7545 30.0116 16.5796 30.1C16.4048 30.1884 16.2116 30.2344 16.0156 30.2344ZM25.4797 26.0156H20.7031C20.3716 26.0156 20.0537 25.8839 19.8193 25.6495C19.5848 25.4151 19.4531 25.0972 19.4531 24.7656C19.4531 24.4341 19.5848 24.1162 19.8193 23.8818C20.0537 23.6473 20.3716 23.5156 20.7031 23.5156H25.4797C25.8112 23.5156 26.1292 23.6473 26.3636 23.8818C26.598 24.1162 26.7297 24.4341 26.7297 24.7656C26.7297 25.0972 26.598 25.4151 26.3636 25.6495C26.1292 25.8839 25.8112 26.0156 25.4797 26.0156ZM6.09377 30.2344C5.90332 30.2345 5.71535 30.1912 5.54422 30.1076C5.37309 30.024 5.22333 29.9024 5.10635 29.7522C4.98937 29.6019 4.90829 29.4268 4.86928 29.2404C4.83027 29.054 4.83437 28.8612 4.88127 28.6766L7.22502 19.4578C7.26139 19.2945 7.33016 19.1402 7.42726 19.004C7.52437 18.8678 7.64782 18.7525 7.79032 18.6648C7.93281 18.5772 8.09144 18.5191 8.25681 18.4939C8.42219 18.4687 8.59093 18.4769 8.75306 18.5181C8.91518 18.5594 9.06739 18.6327 9.20065 18.7338C9.33392 18.8349 9.44554 18.9617 9.52889 19.1068C9.61224 19.2518 9.66563 19.4121 9.6859 19.5781C9.70617 19.7442 9.6929 19.9126 9.64689 20.0735L7.30314 29.2922C7.23479 29.5612 7.07883 29.7999 6.85985 29.9705C6.64088 30.1411 6.37135 30.2339 6.09377 30.2344Z" fill="black"/>
<path d="M0.18684 21.7969C0.0130358 21.5151 -0.0418838 21.1759 0.0341321 20.8537C0.110148 20.5314 0.31089 20.2525 0.592308 20.0781C2.24509 19.0556 4.15037 18.5145 6.09387 18.5156C6.42539 18.5156 6.74333 18.6473 6.97775 18.8817C7.21217 19.1162 7.34387 19.4341 7.34387 19.7656C7.34387 20.0971 7.21217 20.4151 6.97775 20.6495C6.74333 20.8839 6.42539 21.0156 6.09387 21.0156C4.61532 21.0141 3.16566 21.425 1.90793 22.2023C1.76831 22.2888 1.61303 22.3468 1.45096 22.3732C1.28889 22.3996 1.12321 22.3938 0.963381 22.3562C0.803552 22.3185 0.652707 22.2498 0.519465 22.1538C0.386224 22.0578 0.273196 21.9365 0.18684 21.7969Z" fill="black"/>
</g>
<defs>
<clipPath id="clip0_5_29">
<rect width="40" height="40" fill="white"/>
</clipPath>
</defs>
</svg>
