<svg width="40" height="40" viewBox="0 0 40 40" fill="none" xmlns="http://www.w3.org/2000/svg">
<path d="M37.5 22.175L34.375 12.5C34.2191 11.9639 33.8882 11.4954 33.4351 11.1692C32.9821 10.8429 32.4328 10.6778 31.875 10.7H26.25C25.5897 10.7221 24.9629 10.996 24.498 11.4655C24.0332 11.935 23.7655 12.5645 23.75 13.225V16.475H6.38746C5.34638 16.4914 4.3539 16.9183 3.6259 17.6627C2.89789 18.4071 2.49324 19.4088 2.49996 20.45V21.6C2.49667 22.1187 2.59558 22.633 2.79105 23.1135C2.98652 23.594 3.27472 24.0313 3.63919 24.4004C4.00366 24.7695 4.43727 25.0632 4.91525 25.2648C5.39324 25.4663 5.90624 25.5717 6.42496 25.575H10.55C10.55 25.575 10.55 25.65 10.55 25.675C10.55 26.6795 10.949 27.6428 11.6593 28.3531C12.3696 29.0634 13.333 29.4625 14.3375 29.4625C15.342 29.4625 16.3053 29.0634 17.0156 28.3531C17.7259 27.6428 18.125 26.6795 18.125 25.675C18.125 25.675 18.125 25.6125 18.125 25.575H26.4875V25.675C26.4875 26.6695 26.8825 27.6234 27.5858 28.3266C28.2891 29.0299 29.2429 29.425 30.2375 29.425C31.232 29.425 32.1859 29.0299 32.8891 28.3266C33.5924 27.6234 33.9875 26.6695 33.9875 25.675C33.9928 25.6419 33.9928 25.6081 33.9875 25.575H35C35.4029 25.5791 35.8009 25.4858 36.16 25.303C36.5192 25.1202 36.8288 24.8533 37.0625 24.525C37.3162 24.1959 37.4882 23.8112 37.5642 23.4027C37.6403 22.9941 37.6183 22.5733 37.5 22.175ZM14.325 26.8625C14.004 26.8629 13.6952 26.7398 13.4625 26.5187C13.2298 26.2977 13.091 25.9955 13.075 25.675C13.0689 25.5876 13.0689 25.4999 13.075 25.4125L13.325 24.925C13.4464 24.7903 13.5957 24.6837 13.7625 24.6125C13.8493 24.5741 13.9426 24.5529 14.0375 24.55C14.1213 24.5161 14.2098 24.495 14.3 24.4875C14.4801 24.4826 14.6592 24.5167 14.825 24.5875C14.9989 24.6589 15.1563 24.7653 15.2875 24.9L15.55 25.425C15.5559 25.4999 15.5559 25.5751 15.55 25.65C15.5404 25.9707 15.4079 26.2754 15.1799 26.5011C14.9518 26.7268 14.6457 26.8562 14.325 26.8625ZM23.6875 23.1125H17.0125C16.9375 23.0375 16.85 22.9875 16.775 22.925L16.5125 22.7125C16.3863 22.6254 16.2524 22.5501 16.1125 22.4875C16.025 22.4301 15.933 22.38 15.8375 22.3375C15.6836 22.2744 15.5247 22.2242 15.3625 22.1875L15.1 22.1C14.5839 22.0001 14.0535 22.0001 13.5375 22.1L13.275 22.1875C13.1127 22.2242 12.9539 22.2744 12.8 22.3375C12.6954 22.3827 12.595 22.4371 12.5 22.5L12.1 22.7125C12.0151 22.7766 11.9356 22.8477 11.8625 22.925C11.7698 22.9846 11.682 23.0514 11.6 23.125H6.38746C6.19534 23.1187 6.00643 23.0739 5.83192 22.9932C5.65741 22.9126 5.50084 22.7978 5.37148 22.6557C5.24211 22.5135 5.14258 22.3468 5.07877 22.1655C5.01495 21.9841 4.98816 21.7918 4.99996 21.6V20.45C4.99324 20.2587 5.02514 20.068 5.09374 19.8893C5.16234 19.7106 5.26624 19.5475 5.39924 19.4099C5.53223 19.2722 5.6916 19.1627 5.86783 19.088C6.04407 19.0133 6.23354 18.9749 6.42496 18.975H23.75V23.075L23.6875 23.1125ZM30.2375 26.8625C29.9165 26.8629 29.6077 26.7398 29.375 26.5187C29.1423 26.2977 29.0035 25.9955 28.9875 25.675C28.9744 25.5922 28.9744 25.5078 28.9875 25.425L29.225 24.925C29.4939 24.6718 29.8494 24.5309 30.2187 24.5309C30.5881 24.5309 30.9435 24.6718 31.2125 24.925L31.475 25.4625C31.4881 25.5453 31.4881 25.6297 31.475 25.7125C31.4499 26.0242 31.309 26.3153 31.0799 26.5282C30.8508 26.7411 30.5502 26.8603 30.2375 26.8625ZM35.05 23.1125H32.9375C32.8625 23.0375 32.7625 22.9875 32.6875 22.9125L32.4375 22.7125C32.306 22.6233 32.1681 22.5439 32.025 22.475C31.9375 22.475 31.8625 22.375 31.7625 22.3375L31.25 22.1375C31.165 22.1182 31.0815 22.0932 31 22.0625C30.7406 22.0116 30.4768 21.9865 30.2125 21.9875C29.9482 21.9876 29.6845 22.0128 29.425 22.0625L29.175 22.15C29.0087 22.1867 28.8456 22.2369 28.6875 22.3C28.5919 22.3425 28.4999 22.3926 28.4125 22.45C28.2793 22.5133 28.1499 22.5843 28.025 22.6625L27.775 22.8625L27.525 23.075H26.25C26.228 23.0693 26.2085 23.0563 26.1949 23.0381C26.1813 23.02 26.1742 22.9977 26.175 22.975L26.25 13.1375L31.9875 13.2L35.0875 23.05L35.05 23.1125Z" fill="black"/>
</svg>
